<?xml version="1.0" standalone="no"?>
<!DOCTYPE svg PUBLIC "-//W3C//DTD SVG 20010904//EN"
 "http://www.w3.org/TR/2001/REC-SVG-20010904/DTD/svg10.dtd">
<svg version="1.0" xmlns="http://www.w3.org/2000/svg"
 width="160.000000pt" height="160.000000pt" viewBox="0 0 160.000000 160.000000"
 preserveAspectRatio="xMidYMid meet">
<metadata>
Created by potrace 1.14, written by Peter Selinger 2001-2017
</metadata>
<g transform="translate(0.000000,160.000000) scale(0.100000,-0.100000)"
fill="#000000" stroke="none">
<path d="M775 1538 c-11 -6 -25 -18 -31 -26 -10 -14 -17 -14 -94 5 -41 10
-123 2 -190 -20 -41 -14 -79 -21 -84 -17 -5 5 -16 4 -25 -2 -12 -7 -32 -7 -64
0 -26 5 -47 6 -47 1 0 -5 25 -23 56 -40 54 -31 55 -33 51 -68 -4 -31 -77 -237
-179 -506 -16 -44 -32 -86 -34 -95 -2 -8 -21 -62 -42 -119 -29 -77 -45 -107
-61 -112 -11 -5 -21 -11 -21 -14 0 -16 53 -86 78 -104 118 -84 371 -93 516
-19 48 24 55 32 89 85 28 43 26 53 -7 53 -18 0 -26 14 -48 78 -14 42 -59 169
-98 282 -39 113 -84 243 -100 290 -16 47 -37 108 -47 135 -27 72 -21 91 30
100 23 4 47 9 52 11 36 11 126 22 155 19 19 -2 50 -5 68 -7 21 -1 41 -11 52
-25 17 -22 18 -54 15 -526 -1 -276 -6 -518 -10 -537 -12 -58 -46 -140 -69
-167 -20 -23 -32 -27 -95 -30 -125 -5 -177 -26 -207 -85 -21 -40 -18 -46 27
-53 125 -21 644 -21 782 1 45 7 47 23 12 70 -40 53 -46 55 -210 69 -50 4 -64
9 -82 32 -22 27 -57 112 -69 168 -4 17 -7 256 -9 531 -2 559 -4 539 65 551
100 18 314 -15 323 -48 3 -10 -10 -60 -27 -111 -18 -51 -52 -149 -75 -218 -23
-69 -46 -134 -51 -145 -9 -20 -118 -335 -127 -367 -3 -11 -15 -18 -29 -18 -28
0 -29 -8 -8 -53 19 -40 89 -88 164 -113 75 -26 273 -26 343 -1 89 32 137 67
166 124 13 26 14 46 2 39 -16 -10 -39 20 -60 79 -37 106 -98 278 -131 365 -76
203 -140 390 -140 408 0 14 17 30 55 51 30 17 55 36 55 42 0 6 -7 8 -17 5 -38
-15 -86 -17 -94 -5 -5 9 -11 10 -21 2 -10 -9 -26 -7 -65 7 -101 35 -159 40
-247 19 -38 -9 -51 -9 -54 0 -3 9 -54 42 -64 41 -2 0 -12 -6 -23 -12z m-419
-401 c1 -78 4 -243 6 -367 l3 -224 -142 -2 c-79 -1 -143 0 -143 1 0 1 16 46
36 101 19 54 42 119 51 144 8 25 19 54 23 65 14 30 141 378 145 395 2 8 4 21
4 29 1 8 4 11 8 7 4 -4 8 -71 9 -149z m37 121 c3 -13 28 -88 55 -168 28 -80
82 -235 120 -346 l70 -201 -122 3 c-66 1 -123 2 -126 3 -3 1 -6 124 -8 274 -1
149 -4 316 -6 369 -3 90 5 120 17 66z m917 -128 c182 -501 209 -579 202 -584
-6 -3 -254 -1 -273 3 -3 1 -4 52 -2 114 1 61 5 225 7 362 5 282 5 279 16 245
4 -14 27 -77 50 -140z m-87 -32 c-2 -95 -5 -256 -7 -358 -2 -102 -4 -187 -5
-190 -2 -11 -241 -6 -241 5 0 6 10 38 21 70 48 134 182 524 201 583 11 34 23
62 28 62 4 0 6 -78 3 -172z"/>
</g>
</svg>
